<svg xmlns="http://www.w3.org/2000/svg" viewBox="0 0 192 32"><path d="M16 26.534L6.111 32 8 20.422l-8-8.2 11.056-1.688L16 0l4.944 10.534L32 12.223l-8 8.2L25.889 32zm40 0L46.111 32 48 20.422l-8-8.2 11.056-1.688L56 0l4.944 10.534L72 12.223l-8 8.2L65.889 32zm40 0L86.111 32 88 20.422l-8-8.2 11.056-1.688L96 0l4.944 10.534L112 12.223l-8 8.2L105.889 32zm40 0L126.111 32 128 20.422l-8-8.2 11.056-1.688L136 0l4.944 10.534L152 12.223l-8 8.2L145.889 32zm40 0L166.111 32 168 20.422l-8-8.2 11.056-1.688L176 0l4.944 10.534L192 12.223l-8 8.2L185.889 32z" fill="#F5A623" fill-rule="evenodd"/></svg>